<svg width="514" height="307" fill="none" xmlns="http://www.w3.org/2000/svg">
  <g clip-path="url(#clip0)">
    <path d="M393.53 303.528c-6.58-5.555-10.577-14.33-9.529-22.873 1.048-8.543 7.541-16.397 15.963-18.211 8.421-1.814 18.022 3.208 20.58 11.427 1.407-15.846 3.03-32.355 11.462-45.849 7.636-12.218 20.861-20.961 35.194-22.525 14.333-1.564 29.423 4.343 38.362 15.645 8.939 11.302 11.128 27.732 4.867 40.707-4.612 9.559-13.108 16.672-22.011 22.459-28.768 18.543-63.27 26.084-97.16 21.235l2.272-2.015z" fill="#F2F2F2"/>
    <path d="M491.389 210.167c-11.827 9.624-22.676 20.387-32.392 32.134-15.205 18.321-27.509 38.862-36.483 60.908-.657 1.608 1.957 2.308 2.607.718 14.683-35.829 38.124-67.409 68.179-91.85 1.35-1.098-.573-2.998-1.911-1.91z" fill="#fff"/>
    <path d="M165.465 302.019c9.038-7.63 14.528-19.683 13.089-31.417-1.44-11.733-10.358-22.52-21.925-25.012-11.567-2.492-24.753 4.406-28.266 15.694-1.934-21.764-4.162-44.439-15.744-62.973-10.488-16.782-28.6525-28.79-48.3388-30.938-19.6862-2.149-40.4133 5.965-52.6909 21.488-12.277644 15.523-15.28376 38.09-6.68485 55.912C11.239 257.901 22.9094 267.672 35.1371 275.62c39.0105 25.36 87.4029 35.936 133.4489 29.166" fill="#F2F2F2"/>
    <path d="M31.0566 173.788c16.2436 13.217 31.1454 28 44.4899 44.135 13.3465 16.118 25.0965 33.491 35.0855 51.875 5.583 10.313 10.599 20.923 15.024 31.782.903 2.209-2.688 3.17-3.58.986-7.839-19.144-17.537-37.475-28.9548-54.73-11.3626-17.192-24.3678-33.242-38.8328-47.925-8.1814-8.301-16.8136-16.146-25.8573-23.5-1.8537-1.508.7871-4.119 2.6255-2.623z" fill="#fff"/>
    <path d="M368.957 306.328H153.314V85.2879C153.314 38.2599 191.611 0 238.685 0h44.901c47.074 0 85.371 38.2599 85.371 85.2879V306.328z" fill="#F2F2F2"/>
    <path d="M324.056 306.328H153.314V85.2879c-.047-18.0201 5.664-35.5847 16.303-50.1365.393-.534.784-1.0611 1.187-1.5825 5.146-6.7427 11.27-12.6809 18.17-17.6186.39-.2833.781-.5617 1.178-.8401 5.774-3.9915 12.019-7.25441 18.594-9.71456.39-.14785.788-.29598 1.185-.43807 5.947-2.12005 12.111-3.57228 18.379-4.329863.389-.053032.788-.09453 1.187-.136029 6.108-.652478 12.269-.652478 18.377 0 .398.041499.797.082992 1.19.136597 6.267.757635 12.429 2.209685 18.374 4.329325.398.14208.796.29021 1.187.43834 6.494 2.42912 12.666 5.64336 18.378 9.57106.397.2723.794.5507 1.185.8291 3.868 2.758 7.501 5.8305 10.862 9.1863 2.695 2.6917 5.206 5.5609 7.517 8.5883.402.5196.793 1.0467 1.185 1.5799 10.639 14.5519 16.351 32.1169 16.304 50.1373V306.328z" fill="#CECCE1"/>
    <path d="M310.172 207.465c5.221 0 9.453-4.228 9.453-9.444 0-5.215-4.232-9.443-9.453-9.443-5.22 0-9.453 4.228-9.453 9.443 0 5.216 4.233 9.444 9.453 9.444z" fill="#3F3D56"/>
    <path d="M351.292 299.707h-7.243l-3.447-27.91h10.691l-.001 27.91z" fill="#FFB8B8"/>
    <path d="M338.875 297.64h13.969v8.786h-22.765c0-1.154.228-2.296.67-3.362.442-1.066 1.09-2.035 1.907-2.851.816-.816 1.786-1.463 2.853-1.905 1.067-.441 2.211-.668 3.366-.668z" fill="#2F2E41"/>
    <path d="M387.331 299.707h-7.243l-3.446-27.91h10.69l-.001 27.91z" fill="#FFB8B8"/>
    <path d="M374.914 297.64h13.969v8.786h-22.764c0-1.154.227-2.296.669-3.362.442-1.066 1.09-2.035 1.907-2.851.816-.816 1.786-1.463 2.853-1.905 1.067-.441 2.211-.668 3.366-.668z" fill="#2F2E41"/>
    <path d="M314.957 199.892c-.522-.767-.868-1.639-1.015-2.554-.148-.915-.092-1.851.162-2.743.254-.891.7-1.716 1.308-2.417.608-.7 1.362-1.259 2.209-1.637l24.623-67.797 12.115 6.605-28.113 64.79c.541 1.464.525 3.075-.043 4.529-.569 1.453-1.652 2.648-3.044 3.357-1.391.709-2.995.884-4.507.491-1.512-.393-2.827-1.327-3.695-2.624zM383.631 212.632c-.805-.461-1.499-1.093-2.033-1.851-.534-.758-.895-1.624-1.058-2.537-.163-.912-.124-1.849.115-2.745.239-.896.671-1.728 1.267-2.439l-7.628-71.718 13.788.629 3.17 70.544c1.129 1.079 1.822 2.534 1.949 4.09.127 1.555-.322 3.103-1.262 4.35-.939 1.247-2.304 2.107-3.835 2.416-1.531.308-3.123.046-4.473-.739zM361.635 110.186c8.014 0 14.511-6.491 14.511-14.4968 0-8.0062-6.497-14.4966-14.511-14.4966s-14.511 6.4904-14.511 14.4966c0 8.0058 6.497 14.4968 14.511 14.4968z" fill="#FFB8B8"/>
    <path d="M383.538 196.321h-43.747l.053-.34c.078-.509 7.796-51.019 2.104-67.544-.571-1.624-.521-3.401.141-4.99.662-1.589 1.889-2.878 3.445-3.617 8.136-3.828 23.755-8.542 36.937 2.897 1.94 1.711 3.455 3.85 4.425 6.246.97 2.397 1.368 4.986 1.164 7.563l-4.522 59.785z" fill="#3F3D56"/>
    <path d="M348.193 152.427l-19.695-3.992 9.232-21.856c.552-2.117 1.923-3.929 3.81-5.038 1.888-1.108 4.139-1.424 6.259-.877 2.12.547 3.937 1.911 5.051 3.794 1.115 1.883 1.436 4.131.894 6.251l-5.551 21.718zM373.418 159.838l-1.184-27.116c-.898-5.097 2.023-9.916 6.515-10.703 4.494-.785 8.881 2.75 9.783 7.885l4.451 25.337-19.565 4.597z" fill="#3F3D56"/>
    <path d="M382.083 193.074c7.039 26.783 7.807 60.835 5.908 97.978l-9.453-1.18-17.133-70.828-9.453 72.008-10.635-.59c-3.177-38.973-6.27-72.43-1.181-94.437l41.947-2.951zM371.196 106.893c-2.707 2.88-7.734 1.334-8.087-2.602-.028-.305-.026-.613.006-.918.182-1.743 1.19-3.326.949-5.1665-.055-.4581-.226-.8947-.497-1.2684-2.157-2.8858-7.221 1.2908-9.256-1.3217-1.249-1.6018.219-4.124-.739-5.9143-1.265-2.3631-5.01-1.1974-7.358-2.4915-2.613-1.4398-2.457-5.445-.737-7.8811 2.098-2.971 5.776-4.5563 9.408-4.7848 3.632-.2284 7.239.7524 10.63 2.0726 3.852 1.5 7.673 3.5729 10.044 6.9573 2.883 4.1158 3.16 9.649 1.718 14.4616-.877 2.9278-3.87 6.5038-6.081 8.8568z" fill="#2F2E41"/>
    <path d="M496.265 306.708H60.0775c-.1862-.001-.3646-.075-.4961-.207s-.2053-.31-.2053-.496.0738-.364.2053-.496.3099-.206.4961-.207H496.265c.186.001.365.075.496.207.132.132.205.31.205.496s-.073.364-.205.496c-.131.132-.31.206-.496.207z" fill="#3F3D56"/>
    <path d="M277.087 242.288h-76.804c-1.012.006-1.984-.39-2.704-1.1-.72-.71-1.129-1.676-1.136-2.686V67.2359c.007-1.0105.416-1.9767 1.136-2.6865.72-.7099 1.692-1.1054 2.704-1.1h76.804c1.012-.0054 1.984.3901 2.704 1.1.72.7098 1.129 1.676 1.137 2.6865V238.502c-.008 1.01-.417 1.976-1.137 2.686s-1.692 1.106-2.704 1.1z" fill="#fff"/>
    <path d="M280.928 118.866h-84.485v1.18h84.485v-1.18zM281.223 186.217h-84.485v1.18h84.485v-1.18z" fill="#CCC"/>
    <path d="M224.21 63.4495h-1.181V242.879h1.181V63.4495zM253.75 63.4495h-1.181V242.879h1.181V63.4495z" fill="#CCC"/>
  </g>
  <defs>
    <clipPath id="clip0">
      <path fill="#fff" d="M0 0h514v307H0z"/>
    </clipPath>
  </defs>
</svg>
