<svg width="21" height="20" fill="none" xmlns="http://www.w3.org/2000/svg">
  <path d="M4.29309 3.125l12.59311 13.75M12.7074 12.3123c-.6179.5574-1.4335.8484-2.2675.8089-.83395-.0394-1.61799-.4061-2.17962-1.0193-.56164-.6133-.85487-1.4228-.81519-2.25064.03967-.82782.40901-1.6061 1.02676-2.16364" stroke="#D6D6D6" stroke-width="1.5" stroke-linecap="round" stroke-linejoin="round"/>
  <path d="M6.33903 5.35889C3.13022 6.97182 1.77448 10 1.77448 10s2.51861 5.6244 8.81512 5.6244c1.4753.0117 2.9322-.3256 4.25-.9839M16.9341 13.2109C18.6501 11.6853 19.4048 10 19.4048 10s-2.5186-5.6256-8.8152-5.6256c-.5453-.00088-1.0898.04313-1.62781.13158" stroke="#D6D6D6" stroke-width="1.5" stroke-linecap="round" stroke-linejoin="round"/>
  <path d="M11.1821 6.9303c.6691.12754 1.2786.467 1.7369.96745.4583.50045.7408 1.13492.8051 1.80823" stroke="#D6D6D6" stroke-width="1.5" stroke-linecap="round" stroke-linejoin="round"/>
</svg>
