<svg width="35" height="13" viewBox="0 0 35 13" fill="none" xmlns="http://www.w3.org/2000/svg">
<path d="M2.03906 2.10352V10.9365L0.571289 11.3496L0.500977 12H5.25586L5.37012 11.2969L3.75293 10.998V6.82324H9.26367V10.9365L7.80469 11.3496L7.7168 12H12.4893L12.5771 11.2969L10.9775 10.998V2.06836L12.4453 1.73438L12.5508 1.06641H7.75195L7.65527 1.73438L9.26367 2.10352V5.91797H3.75293V2.06836L5.22949 1.73438L5.31738 1.06641H0.536133L0.439453 1.73438L2.03906 2.10352ZM14.2559 7.87793C14.2559 9.54785 14.6602 10.6934 15.4688 11.3145C16.2832 11.9297 17.3174 12.2373 18.5713 12.2373C20.0771 12.2373 21.1846 11.8447 21.8936 11.0596C22.6025 10.2744 22.9629 9.0791 22.9746 7.47363L23.0186 2.06836L24.4775 1.73438L24.5742 1.06641H20.373L20.2852 1.73438L21.8936 2.10352L21.8672 7.76367C21.8613 8.88281 21.6123 9.71484 21.1201 10.2598C20.6279 10.8047 19.9248 11.0771 19.0107 11.0771C18.0674 11.0771 17.3203 10.7871 16.7695 10.207C16.2246 9.62109 15.9521 8.72461 15.9521 7.51758V2.06836L17.4375 1.73438L17.5166 1.06641H12.7529L12.6387 1.73438L14.2559 2.10352V7.87793ZM29.4785 12C30.5918 12 31.4971 11.8447 32.1943 11.5342C32.8916 11.2178 33.3926 10.8105 33.6973 10.3125C34.002 9.80859 34.1543 9.25781 34.1543 8.66016C34.1543 8.25586 34.0488 7.86328 33.8379 7.48242C33.627 7.10156 33.3164 6.78223 32.9062 6.52441C32.4961 6.2666 32.0039 6.12305 31.4297 6.09375V6.03223C32.0625 5.80371 32.5225 5.45801 32.8096 4.99512C33.0967 4.52637 33.2402 4.02832 33.2402 3.50098C33.2402 3.03809 33.1025 2.61328 32.8271 2.22656C32.5576 1.83984 32.1357 1.53223 31.5615 1.30371C30.9873 1.06934 30.2666 0.952148 29.3994 0.952148C28.7139 0.952148 28.0459 0.987305 27.3955 1.05762C26.751 1.12793 25.9775 1.22754 25.0752 1.35645L24.9873 2.0332L26.4902 2.29688V10.9365L25.0225 11.3496L24.9258 12H29.4785ZM28.1777 1.76953C28.4531 1.72852 28.6875 1.70801 28.8809 1.70801C29.8535 1.70801 30.5479 1.93066 30.9639 2.37598C31.3799 2.82129 31.5879 3.36621 31.5879 4.01074C31.5879 4.50879 31.4912 4.91895 31.2979 5.24121C31.1104 5.55762 30.8262 5.79492 30.4453 5.95312H28.1777V1.76953ZM30.1377 6.68262C30.624 6.68262 31.04 6.79395 31.3857 7.0166C31.7314 7.2334 31.9922 7.51465 32.168 7.86035C32.3438 8.20605 32.4316 8.56934 32.4316 8.9502C32.4316 9.33691 32.3408 9.7002 32.1592 10.04C31.9834 10.374 31.7197 10.6436 31.3682 10.8486C31.0166 11.0537 30.5977 11.1562 30.1113 11.1562H28.1777V6.68262H30.1377Z" fill="#666666"/>
</svg>
