<svg width="147" height="29" fill="none" xmlns="http://www.w3.org/2000/svg">
  <path d="M31.2095.00752591V1.37327c-.4935.11722-.9785.26902-1.4515.45438-.2698.11673-.5142.28697-.719.50076-.2268.26909-.3813.59338-.4485.94135-.1222.63722-.1742 1.28638-.1549 1.93534v23.0535H21.912L10.3593 12.159C8.80258 9.98079 7.6555 8.26996 6.9181 7.02649h-.23966c.17124 2.96682.25686 6.09851.25686 9.39491v6.6635c-.03135.7299.03356 1.4608.19296 2.1731.11631.3975.36044.7436.69316.9827.58447.3339 1.22446.555 1.88776.6522v1.3657H0v-1.377c.514-.1016 1.01701-.2542 1.50185-.4556.3331-.1367.61914-.3706.82221-.6723.19335-.3241.31186-.6888.34657-1.0665.05722-.5358.08308-1.0746.07744-1.6136V5.17255c.02825-.71819-.02787-1.43728-.16715-2.1419-.1154-.39827-.36024-.74474-.69438-.98265C1.30689 1.69854.666223 1.46683 0 1.36574V0h10.4023l9.0947 12.7248c.5654.7995 1.3028 1.8844 2.2122 3.2547.9095 1.3704 1.7141 2.6602 2.4138 3.8694h.4117c-.1892-3.2973-.2839-6.8979-.2839-10.80196V5.19758c.0204-.65096-.0208-1.30243-.1229-1.94536-.0553-.33268-.1923-.64571-.3982-.91006-.2009-.22237-.446-.39861-.7189-.51699-.4865-.19649-.9891-.34857-1.5019-.45442V.00500454l9.7006.00252137zM49.3226 7.40702v4.85708h-2.0131c-.2003-.6837-.4766-1.3418-.8234-1.9616-.2094-.32558-.4847-.60175-.8075-.80996-.4987-.23712-1.0489-.33972-1.5977-.29794h-3.2053v7.3344h1.9394c.3476.0168.6942-.0488 1.0127-.1915.2634-.1425.4778-.3635.6145-.6334.2113-.4371.367-.8998.4634-1.377h1.6604v6.2003h-1.6604c-.0949-.4685-.2477-.9227-.4548-1.352-.1332-.2736-.3393-.5035-.5948-.6635-.324-.1521-.6799-.2205-1.0361-.199h-1.9443v8.1544h3.1881c.2907.0046.5811-.018.8677-.0676.2224-.0417.4361-.1222.6317-.2379.1999-.1243.3805-.2783.5358-.4569.1708-.1935.3231-.4031.4548-.6259.1611-.2838.3008-.5797.4178-.8851.189-.4946.3511-.9994.4855-1.5121h2.0131l-.279 5.5743H34.7478v-1.0077c.2979-.0762.5865-.1862.8603-.328.2028-.1091.3673-.2797.4707-.4882.1132-.2504.1802-.5198.1979-.7949.0287-.3205.0434-.7248.0442-1.213V11.2551c0-.4795-.0123-.8763-.0368-1.2068-.0123-.27514-.0774-.54523-.1918-.79487-.1061-.20928-.2691-.38308-.4694-.50072-.2756-.15309-.5699-.2684-.8751-.34298V7.40076l14.5748.00626zM65.0736 11.2401c.0159-.5338-.0158-1.068-.0946-1.59607-.0488-.27414-.1773-.52705-.3687-.72604-.321-.24816-.6928-.41936-1.0877-.50076V7.40827h6.4646v1.00896c-.2904.07647-.5712.18654-.837.32801-.201.11147-.3649.28142-.4707.48819-.1189.24878-.189.5188-.2065.79497-.0286.3196-.0434.7239-.0442 1.213v9.5438c.0193 1.0641-.0792 2.1269-.2937 3.1684-.1609.7697-.4705 1.499-.9107 2.1456-.4061.5756-.9298 1.0548-1.5351 1.4046-.6426.3681-1.3401.6265-2.0647.7648-.8479.1597-1.7089.236-2.5711.2279-1.191.0267-2.3794-.1247-3.5273-.4494-.8783-.2519-1.6829-.7186-2.3437-1.3595-.61-.6177-1.0682-1.3735-1.3372-2.2057-.3195-1.0841-.466-2.2135-.4338-3.3449v-9.8806c0-.4795-.0135-.8763-.0369-1.2068-.0122-.27516-.0774-.54523-.1917-.79489-.1063-.20957-.2697-.38343-.4707-.50072-.2751-.15319-.5689-.26852-.8738-.34298V7.40204h7.7132v1.00897c-.3117.07447-.6111.19507-.8885.35799-.1805.11591-.3297.27601-.4339.46569-.1104.22457-.1804.46753-.2064.71729-.0462.43102-.0659.86462-.059 1.29812v10.0785c-.0047.7358.0446 1.471.1475 2.1994.0764.5957.2579 1.1725.5358 1.7025.249.4625.6242.8417 1.0803 1.0916.5531.2733 1.1642.4024 1.7784.3755.7932.0622 1.5828-.1591 2.2331-.6259.5155-.4604.8772-1.073 1.0348-1.7526.2359-1.1.3371-2.2257.3011-3.3511l-.0012-9.7279zM80.1942 28.2524H72.481v-1.0077c.2979-.076.5865-.186.8603-.328.2031-.1086.3677-.2794.4707-.4882.114-.2502.1815-.5197.1991-.7949.0287-.3205.0434-.7249.0442-1.2131V11.2551c0-.4794-.0123-.8762-.0368-1.2067-.0123-.27521-.0774-.54529-.1918-.79494-.1063-.20957-.2697-.38343-.4707-.50072-.2751-.15319-.5689-.26852-.8738-.34298V7.40079h8.5662c.9889-.01545 1.9769.06839 2.9496.25034.7421.14503 1.4579.40509 2.1225.77112.4936.27284.9323.63811 1.2929 1.07659.3606.44899.6372.96156.8161 1.51216.201.6476.2977 1.3239.2864 2.0029.023.8831-.1505 1.76-.5076 2.565-.3194.6895-.7864 1.2973-1.3667 1.7789-.7025.5508-1.4763 1.0003-2.2995 1.3357v.1539c.6859.2975 1.3002.7429 1.8005 1.3057.524.6232.957 1.3201 1.2856 2.0693l.9254 2.0767c.3081.7519.7222 1.4541 1.229 2.0843.3729.4434.884.7426 1.4478.8475v1.0077H85.377c-.7484-1.1481-1.3926-2.3632-1.9247-3.6303l-1.1466-2.6113c-.2363-.5798-.5316-1.1328-.8812-1.6499-.1953-.2826-.4546-.5132-.7559-.6722-.3827-.1431-.79-.2053-1.197-.1828h-.8517v4.9234c-.0169.5362.0172 1.0729.102 1.6024.0545.2801.1933.536.3969.7323.322.2431.6932.4098 1.0865.4882l-.0111 1.014zM78.6076 9.2247v8.4911h1.4539c.6614.0219 1.3205-.0895 1.9394-.328.4755-.193.8936-.5088 1.213-.9163.3041-.406.5142-.8767.6145-1.377.1166-.5727.173-1.1564.1684-1.7413.0839-1.1218-.2519-2.2345-.9402-3.1145-.3664-.36464-.8048-.64572-1.286-.82463-.4812-.17892-.9942-.2516-1.5051-.21317-.8415-.00418-1.3945.00377-1.6591.0238h.0012zM100.513 28.4977c-1.2056.0905-2.4161-.0991-3.5398-.5544-1.1236-.4554-2.1311-1.1647-2.9465-2.0744-1.4445-1.7525-2.1667-4.3738-2.1667-7.8639-.0523-2.0103.3051-4.0098 1.0496-5.8723.6251-1.5337 1.7065-2.82916 3.0922-3.70415 1.4738-.87493 3.1579-1.31407 4.8632-1.2681 1.222-.09223 2.449.09519 3.59.54855 1.142.45336 2.169 1.16114 3.007 2.0715 1.469 1.7459 2.204 4.3392 2.204 7.7801.033 1.6764-.187 3.348-.654 4.956-.368 1.2573-1.003 2.417-1.859 3.3974-.794.8792-1.784 1.5497-2.887 1.9541-1.205.4331-2.475.6462-3.753.6296zm-3.9803-10.9033c-.1262 2.3393.237 4.6793 1.0655 6.865.252.6689.6989 1.2433 1.2806 1.6461.5817.4027 1.2702.6146 1.9742.6072.693.0205 1.373-.2033 1.923-.6335.567-.4722 1.009-1.081 1.286-1.7713.355-.8613.592-1.7681.705-2.6952.148-1.1341.219-2.2772.213-3.4212.03-1.7101-.125-3.4184-.464-5.0937-.201-1.1366-.681-2.2029-1.396-3.09947-.299-.34094-.668-.61126-1.08-.79202-.413-.18075-.859-.26759-1.308-.2545-.675-.01242-1.3382.18279-1.9027.5602-.5646.37741-1.0043.91949-1.2618 1.55539-.8075 2.0725-1.1607 4.2997-1.0348 6.5257v.0013zM130.442 7.40704v1.00897c-.285.08801-.562.2002-.829.33546-.161.09154-.301.2165-.412.36678-.134.20987-.222.44697-.257.69479-.069.47266-.099.95056-.087 1.42836v17.0122h-3.733l-6.612-11.881c-.891-1.6082-1.547-2.8704-1.966-3.7868h-.132c.098 2.189.147 4.5003.147 6.9339v4.9171c-.018.537.019 1.0744.11 1.6036.058.2771.196.5302.397.7261.321.2392.69.4033 1.081.4807v1.0077h-5.554v-1.0077c.299-.0757.588-.1884.86-.3355.203-.1142.367-.2889.471-.5007.113-.2471.18-.5131.199-.785.028-.3154.043-.7127.044-1.1917V11.2251c.016-.5289-.016-1.0582-.096-1.58107-.057-.2774-.195-.53059-.397-.72604-.317-.24924-.686-.42063-1.079-.50076V7.40826h5.951l5.201 9.38864c.328.5909.749 1.3896 1.265 2.396.515 1.0065.976 1.9587 1.381 2.8567h.235c-.108-2.4335-.162-5.0908-.161-7.9716v-2.8404c.01-.4798-.014-.9598-.074-1.43583-.029-.23755-.107-.4662-.228-.67099-.107-.15733-.248-.28822-.411-.38306-.274-.1421-.563-.25455-.86-.33549V7.40326l5.546.00378zM134.91 23.1061c.148 1.0045.574 1.9452 1.229 2.7115.338.3152.736.5569 1.169.7104.433.1534.893.2154 1.35.1821.535.0093 1.065-.0942 1.558-.3041.46-.2047.846-.5488 1.106-.9853.296-.516.44-1.1069.418-1.7037.014-.5664-.102-1.1282-.339-1.6411-.266-.5136-.637-.9637-1.086-1.3207-.651-.5137-1.351-.9587-2.09-1.3282-.715-.3674-1.406-.7805-2.07-1.2368-.586-.3985-1.117-.8732-1.581-1.412-.428-.5009-.77-1.0713-1.013-1.6875-.248-.6574-.37-1.3573-.36-2.0617-.034-1.1327.279-2.2481.896-3.19093.648-.91524 1.552-1.6102 2.593-1.99414 1.258-.47586 2.592-.70645 3.933-.67974.835-.00208 1.669.04683 2.498.14647.914.11858 1.822.28908 2.718.51073v4.42521h-2.013c-.136-.6735-.376-1.3205-.713-1.9166-.258-.44373-.631-.806-1.079-1.04648-.493-.21644-1.024-.33057-1.561-.33573-.538-.00516-1.071.09878-1.568.3057-.427.19275-.79.50865-1.043.90881-.265.4376-.398.9446-.383 1.4584-.013.5313.101 1.0579.331 1.5347.276.4982.653.9305 1.106 1.2681.713.5354 1.47 1.0078 2.263 1.4121 1.018.5245 1.972 1.1681 2.844 1.9177.661.561 1.187 1.2693 1.537 2.0702.35.8009.515 1.673.482 2.5491.027 1.1436-.264 2.2718-.838 3.2547-.581.9456-1.432 1.6881-2.439 2.1281-1.167.5146-2.43.7674-3.701.7411-1.043-.0024-2.085-.0608-3.122-.1753-1.026-.1074-2.044-.2784-3.049-.512v-4.7043l2.017.0012z" fill="#666"/>
</svg>